<mxfile host="app.diagrams.net" modified="2024-05-09T05:23:53.737Z" agent="Mozilla/5.0 (Windows NT 10.0; Win64; x64) AppleWebKit/537.36 (KHTML, like Gecko) Chrome/124.0.0.0 Safari/537.36" etag="ly2R-FmeoLQil5NGb60f" version="24.3.1" type="device">
  <diagram name="Page-1" id="lyAf_LlAFKuFjANmulet">
    <mxGraphModel dx="2756" dy="1533" grid="0" gridSize="10" guides="1" tooltips="1" connect="1" arrows="1" fold="1" page="0" pageScale="1" pageWidth="827" pageHeight="1169" math="0" shadow="0">
      <root>
        <mxCell id="0" />
        <mxCell id="1" parent="0" />
        <mxCell id="dYRS7pJ4FWGGnZP2dWfI-5" value="&lt;span style=&quot;font-size: 20px;&quot;&gt;&lt;b&gt;Customer&amp;nbsp;&lt;/b&gt;&lt;/span&gt;" style="rounded=0;whiteSpace=wrap;html=1;" vertex="1" parent="1">
          <mxGeometry x="-94" y="209" width="307" height="59" as="geometry" />
        </mxCell>
        <mxCell id="dYRS7pJ4FWGGnZP2dWfI-6" value="&lt;span style=&quot;font-size: 20px;&quot;&gt;&lt;b&gt;Pizzas&amp;nbsp;&lt;/b&gt;&lt;/span&gt;" style="rounded=0;whiteSpace=wrap;html=1;" vertex="1" parent="1">
          <mxGeometry x="427" y="252" width="307" height="59" as="geometry" />
        </mxCell>
        <mxCell id="dYRS7pJ4FWGGnZP2dWfI-7" value="&lt;span style=&quot;font-size: 20px;&quot;&gt;&lt;b&gt;Incredients&lt;/b&gt;&lt;/span&gt;" style="rounded=0;whiteSpace=wrap;html=1;" vertex="1" parent="1">
          <mxGeometry x="465" y="540" width="307" height="59" as="geometry" />
        </mxCell>
        <mxCell id="dYRS7pJ4FWGGnZP2dWfI-9" value="&lt;span style=&quot;font-size: 20px;&quot;&gt;&lt;b&gt;Orders&amp;nbsp;&lt;/b&gt;&lt;/span&gt;" style="rounded=0;whiteSpace=wrap;html=1;" vertex="1" parent="1">
          <mxGeometry x="-63.5" y="552" width="307" height="59" as="geometry" />
        </mxCell>
        <mxCell id="dYRS7pJ4FWGGnZP2dWfI-10" value="&lt;span style=&quot;font-size: 20px;&quot;&gt;&lt;b&gt;Order Details&lt;/b&gt;&lt;/span&gt;" style="rounded=0;whiteSpace=wrap;html=1;" vertex="1" parent="1">
          <mxGeometry x="-260" y="848" width="307" height="59" as="geometry" />
        </mxCell>
        <mxCell id="dYRS7pJ4FWGGnZP2dWfI-12" value="&lt;span style=&quot;font-size: 20px;&quot;&gt;&lt;b&gt;Shipment&lt;/b&gt;&lt;/span&gt;" style="rounded=0;whiteSpace=wrap;html=1;" vertex="1" parent="1">
          <mxGeometry x="424.5" y="851" width="307" height="59" as="geometry" />
        </mxCell>
        <mxCell id="dYRS7pJ4FWGGnZP2dWfI-15" value="&lt;span style=&quot;font-size: 17px;&quot;&gt;places&lt;/span&gt;" style="rhombus;whiteSpace=wrap;html=1;rounded=0;" vertex="1" parent="1">
          <mxGeometry x="14.5" y="353" width="112.5" height="80" as="geometry" />
        </mxCell>
        <mxCell id="dYRS7pJ4FWGGnZP2dWfI-17" value="" style="endArrow=none;html=1;rounded=0;fontSize=12;startSize=8;endSize=8;curved=1;exitX=0.5;exitY=0;exitDx=0;exitDy=0;entryX=0.5;entryY=1;entryDx=0;entryDy=0;" edge="1" parent="1" source="dYRS7pJ4FWGGnZP2dWfI-9" target="dYRS7pJ4FWGGnZP2dWfI-15">
          <mxGeometry width="50" height="50" relative="1" as="geometry">
            <mxPoint x="329" y="538" as="sourcePoint" />
            <mxPoint x="379" y="488" as="targetPoint" />
          </mxGeometry>
        </mxCell>
        <mxCell id="dYRS7pJ4FWGGnZP2dWfI-18" value="" style="endArrow=none;html=1;rounded=0;fontSize=12;startSize=8;endSize=8;curved=1;exitX=0.5;exitY=0;exitDx=0;exitDy=0;entryX=0.5;entryY=1;entryDx=0;entryDy=0;" edge="1" parent="1" source="dYRS7pJ4FWGGnZP2dWfI-15" target="dYRS7pJ4FWGGnZP2dWfI-5">
          <mxGeometry width="50" height="50" relative="1" as="geometry">
            <mxPoint x="52" y="348" as="sourcePoint" />
            <mxPoint x="52" y="264" as="targetPoint" />
          </mxGeometry>
        </mxCell>
        <mxCell id="dYRS7pJ4FWGGnZP2dWfI-19" value="&lt;font style=&quot;font-size: 18px;&quot;&gt;Contains&amp;nbsp;&lt;/font&gt;" style="rhombus;whiteSpace=wrap;html=1;rounded=0;" vertex="1" parent="1">
          <mxGeometry x="309" y="380" width="120" height="80" as="geometry" />
        </mxCell>
        <mxCell id="dYRS7pJ4FWGGnZP2dWfI-20" value="" style="endArrow=none;html=1;rounded=0;fontSize=12;startSize=8;endSize=8;curved=1;exitX=1;exitY=0;exitDx=0;exitDy=0;entryX=0;entryY=1;entryDx=0;entryDy=0;" edge="1" parent="1" source="dYRS7pJ4FWGGnZP2dWfI-9" target="dYRS7pJ4FWGGnZP2dWfI-19">
          <mxGeometry width="50" height="50" relative="1" as="geometry">
            <mxPoint x="65" y="527" as="sourcePoint" />
            <mxPoint x="65" y="443" as="targetPoint" />
          </mxGeometry>
        </mxCell>
        <mxCell id="dYRS7pJ4FWGGnZP2dWfI-21" value="" style="endArrow=none;html=1;rounded=0;fontSize=12;startSize=8;endSize=8;curved=1;exitX=1;exitY=0;exitDx=0;exitDy=0;entryX=0.25;entryY=1;entryDx=0;entryDy=0;" edge="1" parent="1" source="dYRS7pJ4FWGGnZP2dWfI-19" target="dYRS7pJ4FWGGnZP2dWfI-6">
          <mxGeometry width="50" height="50" relative="1" as="geometry">
            <mxPoint x="218" y="527" as="sourcePoint" />
            <mxPoint x="359" y="470" as="targetPoint" />
          </mxGeometry>
        </mxCell>
        <mxCell id="dYRS7pJ4FWGGnZP2dWfI-22" value="&lt;font style=&quot;font-size: 17px;&quot;&gt;HAS&lt;/font&gt;" style="rhombus;whiteSpace=wrap;html=1;rounded=0;" vertex="1" parent="1">
          <mxGeometry x="587" y="380" width="80" height="80" as="geometry" />
        </mxCell>
        <mxCell id="dYRS7pJ4FWGGnZP2dWfI-23" value="" style="endArrow=none;html=1;rounded=0;fontSize=12;startSize=8;endSize=8;curved=1;exitX=0.5;exitY=0;exitDx=0;exitDy=0;entryX=0.5;entryY=1;entryDx=0;entryDy=0;" edge="1" parent="1" source="dYRS7pJ4FWGGnZP2dWfI-22" target="dYRS7pJ4FWGGnZP2dWfI-6">
          <mxGeometry width="50" height="50" relative="1" as="geometry">
            <mxPoint x="329" y="465" as="sourcePoint" />
            <mxPoint x="379" y="415" as="targetPoint" />
          </mxGeometry>
        </mxCell>
        <mxCell id="dYRS7pJ4FWGGnZP2dWfI-24" value="" style="endArrow=none;html=1;rounded=0;fontSize=12;startSize=8;endSize=8;curved=1;exitX=0.5;exitY=0;exitDx=0;exitDy=0;entryX=0.5;entryY=1;entryDx=0;entryDy=0;" edge="1" parent="1" source="dYRS7pJ4FWGGnZP2dWfI-7" target="dYRS7pJ4FWGGnZP2dWfI-22">
          <mxGeometry width="50" height="50" relative="1" as="geometry">
            <mxPoint x="329" y="465" as="sourcePoint" />
            <mxPoint x="379" y="415" as="targetPoint" />
          </mxGeometry>
        </mxCell>
        <mxCell id="dYRS7pJ4FWGGnZP2dWfI-25" value="&lt;font style=&quot;font-size: 18px;&quot;&gt;Contains&amp;nbsp;&lt;/font&gt;" style="rhombus;whiteSpace=wrap;html=1;rounded=0;" vertex="1" parent="1">
          <mxGeometry x="-77" y="696" width="120" height="80" as="geometry" />
        </mxCell>
        <mxCell id="dYRS7pJ4FWGGnZP2dWfI-26" value="" style="endArrow=none;html=1;rounded=0;fontSize=12;startSize=8;endSize=8;curved=1;exitX=0.5;exitY=0;exitDx=0;exitDy=0;entryX=0.5;entryY=1;entryDx=0;entryDy=0;" edge="1" parent="1" source="dYRS7pJ4FWGGnZP2dWfI-25" target="dYRS7pJ4FWGGnZP2dWfI-9">
          <mxGeometry width="50" height="50" relative="1" as="geometry">
            <mxPoint x="233" y="610" as="sourcePoint" />
            <mxPoint x="283" y="560" as="targetPoint" />
          </mxGeometry>
        </mxCell>
        <mxCell id="dYRS7pJ4FWGGnZP2dWfI-27" value="" style="endArrow=none;html=1;rounded=0;fontSize=12;startSize=8;endSize=8;curved=1;exitX=0.5;exitY=1;exitDx=0;exitDy=0;entryX=0.5;entryY=0;entryDx=0;entryDy=0;" edge="1" parent="1" source="dYRS7pJ4FWGGnZP2dWfI-25" target="dYRS7pJ4FWGGnZP2dWfI-10">
          <mxGeometry width="50" height="50" relative="1" as="geometry">
            <mxPoint x="-3" y="663" as="sourcePoint" />
            <mxPoint x="65" y="586" as="targetPoint" />
          </mxGeometry>
        </mxCell>
        <mxCell id="dYRS7pJ4FWGGnZP2dWfI-28" value="&lt;font style=&quot;font-size: 18px;&quot;&gt;HAS&lt;/font&gt;" style="rhombus;whiteSpace=wrap;html=1;" vertex="1" parent="1">
          <mxGeometry x="198" y="861" width="111" height="80" as="geometry" />
        </mxCell>
        <mxCell id="dYRS7pJ4FWGGnZP2dWfI-29" value="" style="endArrow=none;html=1;rounded=0;fontSize=12;startSize=8;endSize=8;curved=1;exitX=0.75;exitY=1;exitDx=0;exitDy=0;entryX=0;entryY=0.5;entryDx=0;entryDy=0;" edge="1" parent="1" source="dYRS7pJ4FWGGnZP2dWfI-9" target="dYRS7pJ4FWGGnZP2dWfI-28">
          <mxGeometry width="50" height="50" relative="1" as="geometry">
            <mxPoint x="233" y="750" as="sourcePoint" />
            <mxPoint x="283" y="700" as="targetPoint" />
          </mxGeometry>
        </mxCell>
        <mxCell id="dYRS7pJ4FWGGnZP2dWfI-30" value="" style="endArrow=none;html=1;rounded=0;fontSize=12;startSize=8;endSize=8;curved=1;exitX=1;exitY=0.5;exitDx=0;exitDy=0;entryX=0;entryY=0.5;entryDx=0;entryDy=0;" edge="1" parent="1" source="dYRS7pJ4FWGGnZP2dWfI-28" target="dYRS7pJ4FWGGnZP2dWfI-12">
          <mxGeometry width="50" height="50" relative="1" as="geometry">
            <mxPoint x="233" y="750" as="sourcePoint" />
            <mxPoint x="283" y="700" as="targetPoint" />
          </mxGeometry>
        </mxCell>
        <mxCell id="dYRS7pJ4FWGGnZP2dWfI-31" value="1" style="text;html=1;align=center;verticalAlign=middle;resizable=0;points=[];autosize=1;strokeColor=none;fillColor=none;fontSize=16;" vertex="1" parent="1">
          <mxGeometry x="182" y="626" width="27" height="31" as="geometry" />
        </mxCell>
        <mxCell id="dYRS7pJ4FWGGnZP2dWfI-32" value="1" style="text;html=1;align=center;verticalAlign=middle;resizable=0;points=[];autosize=1;strokeColor=none;fillColor=none;fontSize=16;" vertex="1" parent="1">
          <mxGeometry x="384" y="845" width="27" height="31" as="geometry" />
        </mxCell>
        <mxCell id="dYRS7pJ4FWGGnZP2dWfI-33" value="m" style="text;html=1;align=center;verticalAlign=middle;resizable=0;points=[];autosize=1;strokeColor=none;fillColor=none;fontSize=16;" vertex="1" parent="1">
          <mxGeometry x="71.5" y="269.5" width="31" height="31" as="geometry" />
        </mxCell>
        <mxCell id="dYRS7pJ4FWGGnZP2dWfI-34" value="n" style="text;html=1;align=center;verticalAlign=middle;resizable=0;points=[];autosize=1;strokeColor=none;fillColor=none;fontSize=16;strokeWidth=2;" vertex="1" parent="1">
          <mxGeometry x="103.5" y="509" width="27" height="31" as="geometry" />
        </mxCell>
        <mxCell id="dYRS7pJ4FWGGnZP2dWfI-35" value="1" style="text;html=1;align=center;verticalAlign=middle;resizable=0;points=[];autosize=1;strokeColor=none;fillColor=none;fontSize=16;" vertex="1" parent="1">
          <mxGeometry x="225.5" y="504.5" width="27" height="31" as="geometry" />
        </mxCell>
        <mxCell id="dYRS7pJ4FWGGnZP2dWfI-36" value="m" style="text;html=1;align=center;verticalAlign=middle;resizable=0;points=[];autosize=1;strokeColor=none;fillColor=none;fontSize=16;" vertex="1" parent="1">
          <mxGeometry x="489" y="315" width="31" height="31" as="geometry" />
        </mxCell>
        <mxCell id="dYRS7pJ4FWGGnZP2dWfI-37" value="n" style="text;html=1;align=center;verticalAlign=middle;resizable=0;points=[];autosize=1;strokeColor=none;fillColor=none;fontSize=16;" vertex="1" parent="1">
          <mxGeometry x="564.5" y="313.5" width="27" height="31" as="geometry" />
        </mxCell>
        <mxCell id="dYRS7pJ4FWGGnZP2dWfI-38" value="m" style="text;html=1;align=center;verticalAlign=middle;resizable=0;points=[];autosize=1;strokeColor=none;fillColor=none;fontSize=16;" vertex="1" parent="1">
          <mxGeometry x="576.5" y="500.5" width="31" height="31" as="geometry" />
        </mxCell>
        <mxCell id="dYRS7pJ4FWGGnZP2dWfI-39" value="1" style="text;html=1;align=center;verticalAlign=middle;resizable=0;points=[];autosize=1;strokeColor=none;fillColor=none;fontSize=16;" vertex="1" parent="1">
          <mxGeometry x="52.5" y="577.5" width="27" height="31" as="geometry" />
        </mxCell>
        <mxCell id="dYRS7pJ4FWGGnZP2dWfI-41" value="m" style="text;html=1;align=center;verticalAlign=middle;resizable=0;points=[];autosize=1;strokeColor=none;fillColor=none;fontSize=16;" vertex="1" parent="1">
          <mxGeometry x="-60" y="806" width="31" height="31" as="geometry" />
        </mxCell>
        <mxCell id="dYRS7pJ4FWGGnZP2dWfI-42" value="&lt;font style=&quot;font-size: 15px;&quot;&gt;&lt;b&gt;&lt;u&gt;C_ID&lt;/u&gt;&lt;/b&gt;&lt;/font&gt;" style="ellipse;whiteSpace=wrap;html=1;" vertex="1" parent="1">
          <mxGeometry x="-140" y="10" width="139" height="52" as="geometry" />
        </mxCell>
        <mxCell id="dYRS7pJ4FWGGnZP2dWfI-43" value="&lt;span style=&quot;font-size: 15px;&quot;&gt;&lt;b&gt;Name&lt;/b&gt;&lt;/span&gt;" style="ellipse;whiteSpace=wrap;html=1;" vertex="1" parent="1">
          <mxGeometry x="43" y="15" width="139" height="52" as="geometry" />
        </mxCell>
        <mxCell id="dYRS7pJ4FWGGnZP2dWfI-44" value="&lt;span style=&quot;font-size: 15px;&quot;&gt;&lt;b&gt;Email&lt;/b&gt;&lt;/span&gt;" style="ellipse;whiteSpace=wrap;html=1;" vertex="1" parent="1">
          <mxGeometry x="188" y="82" width="139" height="52" as="geometry" />
        </mxCell>
        <mxCell id="dYRS7pJ4FWGGnZP2dWfI-45" value="&lt;span style=&quot;font-size: 15px;&quot;&gt;&lt;b&gt;Phone&lt;/b&gt;&lt;/span&gt;" style="ellipse;whiteSpace=wrap;html=1;" vertex="1" parent="1">
          <mxGeometry x="-266" y="123" width="139" height="52" as="geometry" />
        </mxCell>
        <mxCell id="dYRS7pJ4FWGGnZP2dWfI-46" value="" style="endArrow=none;html=1;rounded=0;fontSize=12;startSize=8;endSize=8;curved=1;exitX=0.724;exitY=0.051;exitDx=0;exitDy=0;exitPerimeter=0;entryX=0;entryY=1;entryDx=0;entryDy=0;" edge="1" parent="1" source="dYRS7pJ4FWGGnZP2dWfI-5" target="dYRS7pJ4FWGGnZP2dWfI-44">
          <mxGeometry width="50" height="50" relative="1" as="geometry">
            <mxPoint x="279" y="338" as="sourcePoint" />
            <mxPoint x="329" y="288" as="targetPoint" />
          </mxGeometry>
        </mxCell>
        <mxCell id="dYRS7pJ4FWGGnZP2dWfI-48" value="&lt;span style=&quot;font-size: 15px;&quot;&gt;&lt;b&gt;&lt;u&gt;Pizza_Id&lt;/u&gt;&lt;/b&gt;&lt;/span&gt;" style="ellipse;whiteSpace=wrap;html=1;" vertex="1" parent="1">
          <mxGeometry x="421" y="108" width="139" height="52" as="geometry" />
        </mxCell>
        <mxCell id="dYRS7pJ4FWGGnZP2dWfI-49" value="&lt;span style=&quot;font-size: 15px;&quot;&gt;&lt;b&gt;Type&lt;/b&gt;&lt;/span&gt;" style="ellipse;whiteSpace=wrap;html=1;" vertex="1" parent="1">
          <mxGeometry x="793" y="341" width="139" height="52" as="geometry" />
        </mxCell>
        <mxCell id="dYRS7pJ4FWGGnZP2dWfI-50" value="&lt;span style=&quot;font-size: 15px;&quot;&gt;&lt;b&gt;Size&amp;nbsp;&lt;/b&gt;&lt;/span&gt;" style="ellipse;whiteSpace=wrap;html=1;" vertex="1" parent="1">
          <mxGeometry x="693" y="-114" width="139" height="52" as="geometry" />
        </mxCell>
        <mxCell id="dYRS7pJ4FWGGnZP2dWfI-51" value="&lt;span style=&quot;font-size: 15px;&quot;&gt;&lt;b&gt;Price&lt;/b&gt;&lt;/span&gt;" style="ellipse;whiteSpace=wrap;html=1;" vertex="1" parent="1">
          <mxGeometry x="856" y="-110" width="139" height="52" as="geometry" />
        </mxCell>
        <mxCell id="dYRS7pJ4FWGGnZP2dWfI-52" value="&lt;span style=&quot;font-size: 15px;&quot;&gt;&lt;b&gt;Incredient_Id&lt;/b&gt;&lt;/span&gt;&lt;div&gt;&lt;span style=&quot;font-size: 15px;&quot;&gt;&lt;b&gt;(fk)&lt;/b&gt;&lt;/span&gt;&lt;/div&gt;" style="ellipse;whiteSpace=wrap;html=1;" vertex="1" parent="1">
          <mxGeometry x="808" y="193.5" width="159" height="76" as="geometry" />
        </mxCell>
        <mxCell id="dYRS7pJ4FWGGnZP2dWfI-53" value="&lt;span style=&quot;font-size: 15px;&quot;&gt;&lt;b&gt;&lt;u&gt;Incredient_Id&lt;/u&gt;&lt;/b&gt;&lt;/span&gt;" style="ellipse;whiteSpace=wrap;html=1;" vertex="1" parent="1">
          <mxGeometry x="384" y="675" width="139" height="52" as="geometry" />
        </mxCell>
        <mxCell id="dYRS7pJ4FWGGnZP2dWfI-54" value="&lt;span style=&quot;font-size: 15px;&quot;&gt;&lt;b&gt;Name&lt;/b&gt;&lt;/span&gt;" style="ellipse;whiteSpace=wrap;html=1;" vertex="1" parent="1">
          <mxGeometry x="579" y="689" width="139" height="52" as="geometry" />
        </mxCell>
        <mxCell id="dYRS7pJ4FWGGnZP2dWfI-55" value="&lt;span style=&quot;font-size: 15px;&quot;&gt;&lt;b&gt;Availability&lt;/b&gt;&lt;/span&gt;" style="ellipse;whiteSpace=wrap;html=1;" vertex="1" parent="1">
          <mxGeometry x="761" y="681" width="139" height="52" as="geometry" />
        </mxCell>
        <mxCell id="dYRS7pJ4FWGGnZP2dWfI-56" value="&lt;span style=&quot;font-size: 15px;&quot;&gt;&lt;b&gt;Price&lt;/b&gt;&lt;/span&gt;" style="ellipse;whiteSpace=wrap;html=1;" vertex="1" parent="1">
          <mxGeometry x="851" y="552" width="139" height="52" as="geometry" />
        </mxCell>
        <mxCell id="dYRS7pJ4FWGGnZP2dWfI-57" value="&lt;span style=&quot;font-size: 20px;&quot;&gt;&lt;b&gt;Sizes&lt;/b&gt;&lt;/span&gt;" style="rounded=0;whiteSpace=wrap;html=1;" vertex="1" parent="1">
          <mxGeometry x="615" y="11.5" width="307" height="59" as="geometry" />
        </mxCell>
        <mxCell id="dYRS7pJ4FWGGnZP2dWfI-58" value="&lt;span style=&quot;font-size: 15px;&quot;&gt;&lt;b&gt;&lt;u&gt;Pizza_Id&lt;/u&gt;&lt;/b&gt;&lt;/span&gt;" style="ellipse;whiteSpace=wrap;html=1;" vertex="1" parent="1">
          <mxGeometry x="514" y="-121" width="139" height="52" as="geometry" />
        </mxCell>
        <mxCell id="dYRS7pJ4FWGGnZP2dWfI-59" value="&lt;font style=&quot;font-size: 17px;&quot;&gt;HAS&lt;/font&gt;" style="rhombus;whiteSpace=wrap;html=1;rounded=0;" vertex="1" parent="1">
          <mxGeometry x="681" y="105" width="80" height="80" as="geometry" />
        </mxCell>
        <mxCell id="dYRS7pJ4FWGGnZP2dWfI-60" value="" style="endArrow=none;html=1;rounded=0;fontSize=12;startSize=8;endSize=8;curved=1;exitX=0.5;exitY=0;exitDx=0;exitDy=0;entryX=0;entryY=1;entryDx=0;entryDy=0;" edge="1" parent="1" source="dYRS7pJ4FWGGnZP2dWfI-6" target="dYRS7pJ4FWGGnZP2dWfI-59">
          <mxGeometry width="50" height="50" relative="1" as="geometry">
            <mxPoint x="481" y="194" as="sourcePoint" />
            <mxPoint x="531" y="144" as="targetPoint" />
          </mxGeometry>
        </mxCell>
        <mxCell id="dYRS7pJ4FWGGnZP2dWfI-61" value="" style="endArrow=none;html=1;rounded=0;fontSize=12;startSize=8;endSize=8;curved=1;exitX=1;exitY=0;exitDx=0;exitDy=0;entryX=0.536;entryY=0.994;entryDx=0;entryDy=0;entryPerimeter=0;" edge="1" parent="1" source="dYRS7pJ4FWGGnZP2dWfI-59" target="dYRS7pJ4FWGGnZP2dWfI-57">
          <mxGeometry width="50" height="50" relative="1" as="geometry">
            <mxPoint x="481" y="194" as="sourcePoint" />
            <mxPoint x="531" y="144" as="targetPoint" />
          </mxGeometry>
        </mxCell>
        <mxCell id="dYRS7pJ4FWGGnZP2dWfI-62" value="1" style="text;html=1;align=center;verticalAlign=middle;resizable=0;points=[];autosize=1;strokeColor=none;fillColor=none;fontSize=16;" vertex="1" parent="1">
          <mxGeometry x="636.5" y="217.5" width="27" height="31" as="geometry" />
        </mxCell>
        <mxCell id="dYRS7pJ4FWGGnZP2dWfI-63" value="m" style="text;html=1;align=center;verticalAlign=middle;resizable=0;points=[];autosize=1;strokeColor=none;fillColor=none;fontSize=16;" vertex="1" parent="1">
          <mxGeometry x="774" y="77" width="31" height="31" as="geometry" />
        </mxCell>
        <mxCell id="dYRS7pJ4FWGGnZP2dWfI-64" value="&lt;font style=&quot;font-size: 15px;&quot;&gt;&lt;b&gt;&lt;u&gt;C_ID&lt;/u&gt;&lt;/b&gt;&lt;/font&gt;&lt;div&gt;&lt;font style=&quot;font-size: 15px;&quot;&gt;&lt;b&gt;&lt;u&gt;(fk)&lt;/u&gt;&lt;/b&gt;&lt;/font&gt;&lt;/div&gt;" style="ellipse;whiteSpace=wrap;html=1;" vertex="1" parent="1">
          <mxGeometry x="-147" y="389" width="139" height="52" as="geometry" />
        </mxCell>
        <mxCell id="dYRS7pJ4FWGGnZP2dWfI-66" value="&lt;span style=&quot;font-size: 15px;&quot;&gt;&lt;b&gt;&lt;u&gt;Order_id&lt;/u&gt;&lt;/b&gt;&lt;/span&gt;" style="ellipse;whiteSpace=wrap;html=1;" vertex="1" parent="1">
          <mxGeometry x="-486" y="896" width="139" height="52" as="geometry" />
        </mxCell>
        <mxCell id="dYRS7pJ4FWGGnZP2dWfI-67" value="&lt;b&gt;&lt;font style=&quot;font-size: 15px;&quot;&gt;Price&lt;/font&gt;&lt;/b&gt;" style="ellipse;whiteSpace=wrap;html=1;" vertex="1" parent="1">
          <mxGeometry x="-238" y="1020" width="139" height="52" as="geometry" />
        </mxCell>
        <mxCell id="dYRS7pJ4FWGGnZP2dWfI-68" value="&lt;span style=&quot;font-size: 15px;&quot;&gt;&lt;b&gt;Quantity&lt;/b&gt;&lt;/span&gt;" style="ellipse;whiteSpace=wrap;html=1;" vertex="1" parent="1">
          <mxGeometry x="-35.5" y="1020" width="139" height="52" as="geometry" />
        </mxCell>
        <mxCell id="dYRS7pJ4FWGGnZP2dWfI-69" value="&lt;span style=&quot;font-size: 15px;&quot;&gt;&lt;b&gt;&lt;u&gt;Pizza_Id&lt;/u&gt;&lt;/b&gt;&lt;/span&gt;" style="ellipse;whiteSpace=wrap;html=1;" vertex="1" parent="1">
          <mxGeometry x="-399" y="995" width="139" height="52" as="geometry" />
        </mxCell>
        <mxCell id="dYRS7pJ4FWGGnZP2dWfI-70" value="&lt;span style=&quot;font-size: 15px;&quot;&gt;&lt;b&gt;&lt;u&gt;Order_id&lt;/u&gt;&lt;/b&gt;&lt;/span&gt;" style="ellipse;whiteSpace=wrap;html=1;" vertex="1" parent="1">
          <mxGeometry x="-347" y="475" width="139" height="52" as="geometry" />
        </mxCell>
        <mxCell id="dYRS7pJ4FWGGnZP2dWfI-71" value="&lt;span style=&quot;font-size: 15px;&quot;&gt;&lt;b&gt;ShipmentType&lt;/b&gt;&lt;/span&gt;" style="ellipse;whiteSpace=wrap;html=1;" vertex="1" parent="1">
          <mxGeometry x="-340" y="556.5" width="139" height="52" as="geometry" />
        </mxCell>
        <mxCell id="dYRS7pJ4FWGGnZP2dWfI-72" value="&lt;span style=&quot;font-size: 15px;&quot;&gt;&lt;b&gt;OrderDate&lt;/b&gt;&lt;/span&gt;" style="ellipse;whiteSpace=wrap;html=1;" vertex="1" parent="1">
          <mxGeometry x="-329" y="631" width="139" height="52" as="geometry" />
        </mxCell>
        <mxCell id="dYRS7pJ4FWGGnZP2dWfI-73" value="&lt;span style=&quot;font-size: 15px;&quot;&gt;&lt;b&gt;TotalPrice&lt;/b&gt;&lt;/span&gt;" style="ellipse;whiteSpace=wrap;html=1;" vertex="1" parent="1">
          <mxGeometry x="-252" y="689" width="139" height="52" as="geometry" />
        </mxCell>
        <mxCell id="dYRS7pJ4FWGGnZP2dWfI-75" value="&lt;span style=&quot;font-size: 15px;&quot;&gt;&lt;b&gt;&lt;u&gt;Order_id&lt;/u&gt;&lt;/b&gt;&lt;/span&gt;" style="ellipse;whiteSpace=wrap;html=1;" vertex="1" parent="1">
          <mxGeometry x="241" y="987" width="139" height="52" as="geometry" />
        </mxCell>
        <mxCell id="dYRS7pJ4FWGGnZP2dWfI-76" value="&lt;span style=&quot;font-size: 15px;&quot;&gt;&lt;b&gt;&lt;u&gt;Shipment_id&lt;/u&gt;&lt;/b&gt;&lt;/span&gt;" style="ellipse;whiteSpace=wrap;html=1;" vertex="1" parent="1">
          <mxGeometry x="411" y="1030" width="139" height="52" as="geometry" />
        </mxCell>
        <mxCell id="dYRS7pJ4FWGGnZP2dWfI-77" value="&lt;span style=&quot;font-size: 15px;&quot;&gt;&lt;b&gt;Address&lt;/b&gt;&lt;/span&gt;" style="ellipse;whiteSpace=wrap;html=1;" vertex="1" parent="1">
          <mxGeometry x="603" y="1020" width="139" height="52" as="geometry" />
        </mxCell>
        <mxCell id="dYRS7pJ4FWGGnZP2dWfI-79" value="&lt;span style=&quot;font-size: 17px;&quot;&gt;HAS&lt;/span&gt;" style="rhombus;whiteSpace=wrap;html=1;rounded=0;" vertex="1" parent="1">
          <mxGeometry x="-347" y="309" width="112.5" height="80" as="geometry" />
        </mxCell>
        <mxCell id="dYRS7pJ4FWGGnZP2dWfI-80" value="&lt;span style=&quot;font-size: 20px;&quot;&gt;&lt;b&gt;Feedback&lt;/b&gt;&lt;/span&gt;" style="rounded=0;whiteSpace=wrap;html=1;" vertex="1" parent="1">
          <mxGeometry x="-647" y="134.5" width="307" height="59" as="geometry" />
        </mxCell>
        <mxCell id="dYRS7pJ4FWGGnZP2dWfI-82" value="&lt;span style=&quot;font-size: 15px;&quot;&gt;&lt;b&gt;&lt;u&gt;Order_id&lt;/u&gt;&lt;/b&gt;&lt;/span&gt;" style="ellipse;whiteSpace=wrap;html=1;" vertex="1" parent="1">
          <mxGeometry x="-734" y="278" width="139" height="52" as="geometry" />
        </mxCell>
        <mxCell id="dYRS7pJ4FWGGnZP2dWfI-83" value="&lt;span style=&quot;font-size: 15px;&quot;&gt;&lt;b&gt;Feedback&lt;/b&gt;&lt;/span&gt;" style="ellipse;whiteSpace=wrap;html=1;" vertex="1" parent="1">
          <mxGeometry x="-560" y="285" width="139" height="52" as="geometry" />
        </mxCell>
        <mxCell id="dYRS7pJ4FWGGnZP2dWfI-84" value="" style="endArrow=none;html=1;rounded=0;fontSize=12;startSize=8;endSize=8;curved=1;exitX=1;exitY=1;exitDx=0;exitDy=0;entryX=0;entryY=0;entryDx=0;entryDy=0;" edge="1" parent="1" source="dYRS7pJ4FWGGnZP2dWfI-79" target="dYRS7pJ4FWGGnZP2dWfI-9">
          <mxGeometry width="50" height="50" relative="1" as="geometry">
            <mxPoint x="-341" y="365" as="sourcePoint" />
            <mxPoint x="-291" y="315" as="targetPoint" />
          </mxGeometry>
        </mxCell>
        <mxCell id="dYRS7pJ4FWGGnZP2dWfI-85" value="" style="endArrow=none;html=1;rounded=0;fontSize=12;startSize=8;endSize=8;curved=1;exitX=0;exitY=0;exitDx=0;exitDy=0;entryX=0.75;entryY=1;entryDx=0;entryDy=0;" edge="1" parent="1" source="dYRS7pJ4FWGGnZP2dWfI-79" target="dYRS7pJ4FWGGnZP2dWfI-80">
          <mxGeometry width="50" height="50" relative="1" as="geometry">
            <mxPoint x="-341" y="365" as="sourcePoint" />
            <mxPoint x="-291" y="315" as="targetPoint" />
          </mxGeometry>
        </mxCell>
        <mxCell id="dYRS7pJ4FWGGnZP2dWfI-86" value="1" style="text;html=1;align=center;verticalAlign=middle;resizable=0;points=[];autosize=1;strokeColor=none;fillColor=none;fontSize=16;" vertex="1" parent="1">
          <mxGeometry x="-84" y="496" width="27" height="31" as="geometry" />
        </mxCell>
        <mxCell id="dYRS7pJ4FWGGnZP2dWfI-87" value="1" style="text;html=1;align=center;verticalAlign=middle;resizable=0;points=[];autosize=1;strokeColor=none;fillColor=none;fontSize=16;" vertex="1" parent="1">
          <mxGeometry x="-374" y="202" width="27" height="31" as="geometry" />
        </mxCell>
        <mxCell id="dYRS7pJ4FWGGnZP2dWfI-88" value="" style="endArrow=none;html=1;rounded=0;fontSize=12;startSize=8;endSize=8;curved=1;exitX=0;exitY=0.5;exitDx=0;exitDy=0;entryX=1;entryY=0;entryDx=0;entryDy=0;" edge="1" parent="1" source="dYRS7pJ4FWGGnZP2dWfI-10" target="dYRS7pJ4FWGGnZP2dWfI-66">
          <mxGeometry width="50" height="50" relative="1" as="geometry">
            <mxPoint x="-39" y="728" as="sourcePoint" />
            <mxPoint x="11" y="678" as="targetPoint" />
          </mxGeometry>
        </mxCell>
        <mxCell id="dYRS7pJ4FWGGnZP2dWfI-90" value="" style="endArrow=none;html=1;rounded=0;fontSize=12;startSize=8;endSize=8;curved=1;exitX=0.25;exitY=1;exitDx=0;exitDy=0;entryX=0.5;entryY=0;entryDx=0;entryDy=0;" edge="1" parent="1" source="dYRS7pJ4FWGGnZP2dWfI-10" target="dYRS7pJ4FWGGnZP2dWfI-69">
          <mxGeometry width="50" height="50" relative="1" as="geometry">
            <mxPoint x="-39" y="728" as="sourcePoint" />
            <mxPoint x="11" y="678" as="targetPoint" />
          </mxGeometry>
        </mxCell>
        <mxCell id="dYRS7pJ4FWGGnZP2dWfI-91" value="" style="endArrow=none;html=1;rounded=0;fontSize=12;startSize=8;endSize=8;curved=1;exitX=0.5;exitY=1;exitDx=0;exitDy=0;entryX=0.5;entryY=0;entryDx=0;entryDy=0;" edge="1" parent="1" source="dYRS7pJ4FWGGnZP2dWfI-10" target="dYRS7pJ4FWGGnZP2dWfI-67">
          <mxGeometry width="50" height="50" relative="1" as="geometry">
            <mxPoint x="-39" y="815" as="sourcePoint" />
            <mxPoint x="11" y="765" as="targetPoint" />
          </mxGeometry>
        </mxCell>
        <mxCell id="dYRS7pJ4FWGGnZP2dWfI-92" value="" style="endArrow=none;html=1;rounded=0;fontSize=12;startSize=8;endSize=8;curved=1;exitX=0.5;exitY=1;exitDx=0;exitDy=0;entryX=0.5;entryY=0;entryDx=0;entryDy=0;" edge="1" parent="1" source="dYRS7pJ4FWGGnZP2dWfI-10" target="dYRS7pJ4FWGGnZP2dWfI-68">
          <mxGeometry width="50" height="50" relative="1" as="geometry">
            <mxPoint x="-96" y="917" as="sourcePoint" />
            <mxPoint x="-158" y="1030" as="targetPoint" />
          </mxGeometry>
        </mxCell>
        <mxCell id="dYRS7pJ4FWGGnZP2dWfI-93" value="" style="endArrow=none;html=1;rounded=0;fontSize=12;startSize=8;endSize=8;curved=1;exitX=0.5;exitY=0;exitDx=0;exitDy=0;entryX=0.25;entryY=1;entryDx=0;entryDy=0;" edge="1" parent="1" source="dYRS7pJ4FWGGnZP2dWfI-75" target="dYRS7pJ4FWGGnZP2dWfI-12">
          <mxGeometry width="50" height="50" relative="1" as="geometry">
            <mxPoint x="246" y="815" as="sourcePoint" />
            <mxPoint x="296" y="765" as="targetPoint" />
          </mxGeometry>
        </mxCell>
        <mxCell id="dYRS7pJ4FWGGnZP2dWfI-94" value="" style="endArrow=none;html=1;rounded=0;fontSize=12;startSize=8;endSize=8;curved=1;exitX=0.5;exitY=0;exitDx=0;exitDy=0;entryX=0.5;entryY=1;entryDx=0;entryDy=0;" edge="1" parent="1" source="dYRS7pJ4FWGGnZP2dWfI-76" target="dYRS7pJ4FWGGnZP2dWfI-12">
          <mxGeometry width="50" height="50" relative="1" as="geometry">
            <mxPoint x="321" y="997" as="sourcePoint" />
            <mxPoint x="511" y="920" as="targetPoint" />
          </mxGeometry>
        </mxCell>
        <mxCell id="dYRS7pJ4FWGGnZP2dWfI-95" value="" style="endArrow=none;html=1;rounded=0;fontSize=12;startSize=8;endSize=8;curved=1;exitX=0.5;exitY=0;exitDx=0;exitDy=0;entryX=0.75;entryY=1;entryDx=0;entryDy=0;" edge="1" parent="1" source="dYRS7pJ4FWGGnZP2dWfI-77" target="dYRS7pJ4FWGGnZP2dWfI-12">
          <mxGeometry width="50" height="50" relative="1" as="geometry">
            <mxPoint x="491" y="1040" as="sourcePoint" />
            <mxPoint x="588" y="920" as="targetPoint" />
          </mxGeometry>
        </mxCell>
        <mxCell id="dYRS7pJ4FWGGnZP2dWfI-97" value="" style="endArrow=none;html=1;rounded=0;fontSize=12;startSize=8;endSize=8;curved=1;exitX=0.25;exitY=1;exitDx=0;exitDy=0;entryX=0.5;entryY=0;entryDx=0;entryDy=0;" edge="1" parent="1" source="dYRS7pJ4FWGGnZP2dWfI-7" target="dYRS7pJ4FWGGnZP2dWfI-53">
          <mxGeometry width="50" height="50" relative="1" as="geometry">
            <mxPoint x="319" y="911" as="sourcePoint" />
            <mxPoint x="435" y="891" as="targetPoint" />
          </mxGeometry>
        </mxCell>
        <mxCell id="dYRS7pJ4FWGGnZP2dWfI-98" value="" style="endArrow=none;html=1;rounded=0;fontSize=12;startSize=8;endSize=8;curved=1;exitX=0.5;exitY=1;exitDx=0;exitDy=0;entryX=0.5;entryY=0;entryDx=0;entryDy=0;" edge="1" parent="1" source="dYRS7pJ4FWGGnZP2dWfI-7" target="dYRS7pJ4FWGGnZP2dWfI-54">
          <mxGeometry width="50" height="50" relative="1" as="geometry">
            <mxPoint x="552" y="609" as="sourcePoint" />
            <mxPoint x="464" y="685" as="targetPoint" />
          </mxGeometry>
        </mxCell>
        <mxCell id="dYRS7pJ4FWGGnZP2dWfI-99" value="" style="endArrow=none;html=1;rounded=0;fontSize=12;startSize=8;endSize=8;curved=1;exitX=0.75;exitY=1;exitDx=0;exitDy=0;entryX=0.5;entryY=0;entryDx=0;entryDy=0;" edge="1" parent="1" source="dYRS7pJ4FWGGnZP2dWfI-7" target="dYRS7pJ4FWGGnZP2dWfI-55">
          <mxGeometry width="50" height="50" relative="1" as="geometry">
            <mxPoint x="628" y="609" as="sourcePoint" />
            <mxPoint x="659" y="699" as="targetPoint" />
          </mxGeometry>
        </mxCell>
        <mxCell id="dYRS7pJ4FWGGnZP2dWfI-100" value="" style="endArrow=none;html=1;rounded=0;fontSize=12;startSize=8;endSize=8;curved=1;exitX=1;exitY=0.5;exitDx=0;exitDy=0;entryX=0;entryY=0.5;entryDx=0;entryDy=0;" edge="1" parent="1" source="dYRS7pJ4FWGGnZP2dWfI-7" target="dYRS7pJ4FWGGnZP2dWfI-56">
          <mxGeometry width="50" height="50" relative="1" as="geometry">
            <mxPoint x="705" y="609" as="sourcePoint" />
            <mxPoint x="840" y="691" as="targetPoint" />
          </mxGeometry>
        </mxCell>
        <mxCell id="dYRS7pJ4FWGGnZP2dWfI-101" value="" style="endArrow=none;html=1;rounded=0;fontSize=12;startSize=8;endSize=8;curved=1;exitX=0.25;exitY=0;exitDx=0;exitDy=0;entryX=0.5;entryY=1;entryDx=0;entryDy=0;" edge="1" parent="1" source="dYRS7pJ4FWGGnZP2dWfI-9" target="dYRS7pJ4FWGGnZP2dWfI-64">
          <mxGeometry width="50" height="50" relative="1" as="geometry">
            <mxPoint x="100" y="562" as="sourcePoint" />
            <mxPoint x="81" y="443" as="targetPoint" />
          </mxGeometry>
        </mxCell>
        <mxCell id="dYRS7pJ4FWGGnZP2dWfI-102" value="" style="endArrow=none;html=1;rounded=0;fontSize=12;startSize=8;endSize=8;curved=1;exitX=0;exitY=1;exitDx=0;exitDy=0;entryX=1;entryY=0;entryDx=0;entryDy=0;" edge="1" parent="1" source="dYRS7pJ4FWGGnZP2dWfI-9" target="dYRS7pJ4FWGGnZP2dWfI-73">
          <mxGeometry width="50" height="50" relative="1" as="geometry">
            <mxPoint x="23" y="562" as="sourcePoint" />
            <mxPoint x="-67" y="451" as="targetPoint" />
          </mxGeometry>
        </mxCell>
        <mxCell id="dYRS7pJ4FWGGnZP2dWfI-103" value="" style="endArrow=none;html=1;rounded=0;fontSize=12;startSize=8;endSize=8;curved=1;exitX=0;exitY=0.5;exitDx=0;exitDy=0;" edge="1" parent="1" source="dYRS7pJ4FWGGnZP2dWfI-9" target="dYRS7pJ4FWGGnZP2dWfI-72">
          <mxGeometry width="50" height="50" relative="1" as="geometry">
            <mxPoint x="-53" y="621" as="sourcePoint" />
            <mxPoint x="-123" y="707" as="targetPoint" />
          </mxGeometry>
        </mxCell>
        <mxCell id="dYRS7pJ4FWGGnZP2dWfI-104" value="" style="endArrow=none;html=1;rounded=0;fontSize=12;startSize=8;endSize=8;curved=1;exitX=0;exitY=0;exitDx=0;exitDy=0;entryX=1;entryY=0.5;entryDx=0;entryDy=0;" edge="1" parent="1" source="dYRS7pJ4FWGGnZP2dWfI-9" target="dYRS7pJ4FWGGnZP2dWfI-70">
          <mxGeometry width="50" height="50" relative="1" as="geometry">
            <mxPoint x="-53" y="592" as="sourcePoint" />
            <mxPoint x="-201" y="648" as="targetPoint" />
          </mxGeometry>
        </mxCell>
        <mxCell id="dYRS7pJ4FWGGnZP2dWfI-105" value="" style="endArrow=none;html=1;rounded=0;fontSize=12;startSize=8;endSize=8;curved=1;exitX=0;exitY=0.25;exitDx=0;exitDy=0;entryX=1;entryY=0.5;entryDx=0;entryDy=0;" edge="1" parent="1" source="dYRS7pJ4FWGGnZP2dWfI-9" target="dYRS7pJ4FWGGnZP2dWfI-71">
          <mxGeometry width="50" height="50" relative="1" as="geometry">
            <mxPoint x="-53" y="562" as="sourcePoint" />
            <mxPoint x="-198" y="511" as="targetPoint" />
          </mxGeometry>
        </mxCell>
        <mxCell id="dYRS7pJ4FWGGnZP2dWfI-106" value="" style="endArrow=none;html=1;rounded=0;fontSize=12;startSize=8;endSize=8;curved=1;entryX=0.5;entryY=1;entryDx=0;entryDy=0;" edge="1" parent="1" source="dYRS7pJ4FWGGnZP2dWfI-5" target="dYRS7pJ4FWGGnZP2dWfI-43">
          <mxGeometry width="50" height="50" relative="1" as="geometry">
            <mxPoint x="138" y="222" as="sourcePoint" />
            <mxPoint x="218" y="136" as="targetPoint" />
          </mxGeometry>
        </mxCell>
        <mxCell id="dYRS7pJ4FWGGnZP2dWfI-107" value="" style="endArrow=none;html=1;rounded=0;fontSize=12;startSize=8;endSize=8;curved=1;entryX=0.5;entryY=1;entryDx=0;entryDy=0;exitX=0.25;exitY=0;exitDx=0;exitDy=0;" edge="1" parent="1" source="dYRS7pJ4FWGGnZP2dWfI-5" target="dYRS7pJ4FWGGnZP2dWfI-42">
          <mxGeometry width="50" height="50" relative="1" as="geometry">
            <mxPoint x="79" y="219" as="sourcePoint" />
            <mxPoint x="123" y="77" as="targetPoint" />
          </mxGeometry>
        </mxCell>
        <mxCell id="dYRS7pJ4FWGGnZP2dWfI-108" value="" style="endArrow=none;html=1;rounded=0;fontSize=12;startSize=8;endSize=8;curved=1;entryX=1;entryY=1;entryDx=0;entryDy=0;exitX=0;exitY=0.25;exitDx=0;exitDy=0;" edge="1" parent="1" source="dYRS7pJ4FWGGnZP2dWfI-5" target="dYRS7pJ4FWGGnZP2dWfI-45">
          <mxGeometry width="50" height="50" relative="1" as="geometry">
            <mxPoint x="-7" y="219" as="sourcePoint" />
            <mxPoint x="-60" y="72" as="targetPoint" />
          </mxGeometry>
        </mxCell>
        <mxCell id="dYRS7pJ4FWGGnZP2dWfI-109" value="" style="endArrow=none;html=1;rounded=0;fontSize=12;startSize=8;endSize=8;curved=1;exitX=0.5;exitY=1;exitDx=0;exitDy=0;entryX=0;entryY=0;entryDx=0;entryDy=0;" edge="1" parent="1" source="dYRS7pJ4FWGGnZP2dWfI-58" target="dYRS7pJ4FWGGnZP2dWfI-57">
          <mxGeometry width="50" height="50" relative="1" as="geometry">
            <mxPoint x="138" y="222" as="sourcePoint" />
            <mxPoint x="218" y="136" as="targetPoint" />
          </mxGeometry>
        </mxCell>
        <mxCell id="dYRS7pJ4FWGGnZP2dWfI-110" value="" style="endArrow=none;html=1;rounded=0;fontSize=12;startSize=8;endSize=8;curved=1;exitX=0.5;exitY=1;exitDx=0;exitDy=0;entryX=0.25;entryY=0;entryDx=0;entryDy=0;" edge="1" parent="1" source="dYRS7pJ4FWGGnZP2dWfI-50" target="dYRS7pJ4FWGGnZP2dWfI-57">
          <mxGeometry width="50" height="50" relative="1" as="geometry">
            <mxPoint x="661" y="-67" as="sourcePoint" />
            <mxPoint x="715" y="18" as="targetPoint" />
          </mxGeometry>
        </mxCell>
        <mxCell id="dYRS7pJ4FWGGnZP2dWfI-111" value="" style="endArrow=none;html=1;rounded=0;fontSize=12;startSize=8;endSize=8;curved=1;exitX=0.5;exitY=1;exitDx=0;exitDy=0;entryX=0.75;entryY=0;entryDx=0;entryDy=0;" edge="1" parent="1" source="dYRS7pJ4FWGGnZP2dWfI-51" target="dYRS7pJ4FWGGnZP2dWfI-57">
          <mxGeometry width="50" height="50" relative="1" as="geometry">
            <mxPoint x="852" y="-72" as="sourcePoint" />
            <mxPoint x="792" y="18" as="targetPoint" />
          </mxGeometry>
        </mxCell>
        <mxCell id="dYRS7pJ4FWGGnZP2dWfI-112" value="" style="endArrow=none;html=1;rounded=0;fontSize=12;startSize=8;endSize=8;curved=1;exitX=0.25;exitY=0;exitDx=0;exitDy=0;" edge="1" parent="1" source="dYRS7pJ4FWGGnZP2dWfI-6" target="dYRS7pJ4FWGGnZP2dWfI-48">
          <mxGeometry width="50" height="50" relative="1" as="geometry">
            <mxPoint x="853" y="-27" as="sourcePoint" />
            <mxPoint x="861" y="20" as="targetPoint" />
          </mxGeometry>
        </mxCell>
        <mxCell id="dYRS7pJ4FWGGnZP2dWfI-113" value="" style="endArrow=none;html=1;rounded=0;fontSize=12;startSize=8;endSize=8;curved=1;exitX=1;exitY=0;exitDx=0;exitDy=0;entryX=0;entryY=0.5;entryDx=0;entryDy=0;" edge="1" parent="1" source="dYRS7pJ4FWGGnZP2dWfI-6" target="dYRS7pJ4FWGGnZP2dWfI-52">
          <mxGeometry width="50" height="50" relative="1" as="geometry">
            <mxPoint x="514" y="262" as="sourcePoint" />
            <mxPoint x="503" y="170" as="targetPoint" />
          </mxGeometry>
        </mxCell>
        <mxCell id="dYRS7pJ4FWGGnZP2dWfI-114" value="" style="endArrow=none;html=1;rounded=0;fontSize=12;startSize=8;endSize=8;curved=1;exitX=1;exitY=0.75;exitDx=0;exitDy=0;entryX=0;entryY=0;entryDx=0;entryDy=0;" edge="1" parent="1" source="dYRS7pJ4FWGGnZP2dWfI-6" target="dYRS7pJ4FWGGnZP2dWfI-49">
          <mxGeometry width="50" height="50" relative="1" as="geometry">
            <mxPoint x="744" y="262" as="sourcePoint" />
            <mxPoint x="818" y="242" as="targetPoint" />
          </mxGeometry>
        </mxCell>
        <mxCell id="dYRS7pJ4FWGGnZP2dWfI-115" value="" style="endArrow=none;html=1;rounded=0;fontSize=12;startSize=8;endSize=8;curved=1;exitX=0.5;exitY=0;exitDx=0;exitDy=0;entryX=0.5;entryY=1;entryDx=0;entryDy=0;" edge="1" parent="1" source="dYRS7pJ4FWGGnZP2dWfI-83" target="dYRS7pJ4FWGGnZP2dWfI-80">
          <mxGeometry width="50" height="50" relative="1" as="geometry">
            <mxPoint x="-463" y="336" as="sourcePoint" />
            <mxPoint x="-568" y="115" as="targetPoint" />
          </mxGeometry>
        </mxCell>
        <mxCell id="dYRS7pJ4FWGGnZP2dWfI-116" value="" style="endArrow=none;html=1;rounded=0;fontSize=12;startSize=8;endSize=8;curved=1;entryX=0.25;entryY=1;entryDx=0;entryDy=0;exitX=0.5;exitY=0;exitDx=0;exitDy=0;" edge="1" parent="1" source="dYRS7pJ4FWGGnZP2dWfI-82" target="dYRS7pJ4FWGGnZP2dWfI-80">
          <mxGeometry width="50" height="50" relative="1" as="geometry">
            <mxPoint x="-714" y="152" as="sourcePoint" />
            <mxPoint x="-645" y="115" as="targetPoint" />
          </mxGeometry>
        </mxCell>
        <mxCell id="dYRS7pJ4FWGGnZP2dWfI-118" value="1" style="text;html=1;align=center;verticalAlign=middle;resizable=0;points=[];autosize=1;strokeColor=none;fillColor=none;fontSize=16;" vertex="1" parent="1">
          <mxGeometry x="74.5" y="618.5" width="27" height="31" as="geometry" />
        </mxCell>
      </root>
    </mxGraphModel>
  </diagram>
</mxfile>
